<svg xmlns="http://www.w3.org/2000/svg" width="152" height="85" viewBox="0 0 152 85"><path fill="#d42b41" d="M78 47V37h10v10zm-9.2-10.1l.04 10.12L59.9 47c-5.34 0-11.39-.43-16.16-3.67-4.58-3.11-7.08-8.03-7.63-14.97a25 25 0 0 1-.08-1.2v-.38C36 25.54 36 24.22 36 22.45v-3.99h32.73v10.05l-22.24-.07c.75 7.13 4.45 8.51 13.38 8.51zm43.79-31.45a22.25 22.25 0 0 1-9.16 18.18 23.33 23.33 0 0 1 9.18 18.65v4.74H102.4v-4.74c0-7.72-6.28-13.77-14.29-13.77H77.9V0h10.21v18.46c3.97 0 7.61-1.33 10.25-3.73a12.2 12.2 0 0 0 4.02-9.28V0h10.21zM36 10V0h33v10z"/><path fill="#fff" d="M14.75 78.69c-.39.28-1.01.62-1.86 1.01-.85.39-1.95.59-3.31.59a4.84 4.84 0 0 1-3.26-1.02 3.12 3.12 0 0 1-1.22-2.36h12.17v-.86c0-1.4-.19-2.69-.55-3.86a8.8 8.8 0 0 0-1.62-3.03 7.5 7.5 0 0 0-2.64-1.97 8.84 8.84 0 0 0-3.65-.71c-1.38 0-2.62.24-3.71.73a8.28 8.28 0 0 0-4.5 4.77 9.6 9.6 0 0 0-.6 3.36 10 10 0 0 0 .64 3.65 7.67 7.67 0 0 0 1.86 2.83c.81.78 1.8 1.39 2.96 1.83 1.17.44 2.48.66 3.94.66a12.76 12.76 0 0 0 5.12-1 8.66 8.66 0 0 0 1.51-.8 30 30 0 0 1 .87-.59zM5.1 73.63a3.07 3.07 0 0 1 .93-2.1 3.8 3.8 0 0 1 2.75-1.07 3.53 3.53 0 0 1 2.66 1.07 3.1 3.1 0 0 1 .87 2.1zm15.15 10.11h5.25v-5.52l1.53-1.53 4.37 7.05h6.08L30.52 73.2l6.12-6.15h-5.93l-5.21 5.26V60h-5.25zm19.42 0h5.24v-8.26c0-1.33.38-2.35 1.15-3.08a4.2 4.2 0 0 1 3-1.08c.73 0 1.36.08 1.9.25l.84-4.52c-.32-.12-.64-.2-.97-.25a8.04 8.04 0 0 0-1.18-.07c-1.22 0-2.21.26-2.97.78a7.45 7.45 0 0 0-1.8 1.64l-.19-2.1h-5.02zm28.01-5.05c-.39.28-1.01.62-1.86 1.01-.85.39-1.96.59-3.32.59a4.84 4.84 0 0 1-3.26-1.02 3.19 3.19 0 0 1-1.22-2.36h12.17v-.86c0-1.4-.18-2.69-.55-3.86a8.48 8.48 0 0 0-1.62-3.03 7.33 7.33 0 0 0-2.64-1.97 8.79 8.79 0 0 0-3.64-.71c-1.38 0-2.62.24-3.72.73a8.23 8.23 0 0 0-4.49 4.77 10.21 10.21 0 0 0 .03 7.01 7.93 7.93 0 0 0 4.83 4.66c1.16.44 2.48.66 3.93.66a12.8 12.8 0 0 0 5.12-1 8.31 8.31 0 0 0 1.51-.8c.39-.27.68-.47.88-.59zm-9.66-5.06c0-.35.08-.72.24-1.08a3.4 3.4 0 0 1 1.84-1.78c.46-.21 1-.31 1.6-.31a3.6 3.6 0 0 1 2.66 1.07c.29.31.51.65.66 1.02.14.36.22.73.22 1.08zm25.21 10.11h4.92v-9.72c0-2.3-.62-4.13-1.86-5.5-1.24-1.36-3.16-2.04-5.76-2.04a13.85 13.85 0 0 0-4.84.71c-.63.21-1.18.45-1.64.71-.46.26-.87.52-1.24.78l2.15 3.14a8.29 8.29 0 0 1 6.08-1.27c.39.09.74.23 1.04.43a2.04 2.04 0 0 1 1 1.83v.36c-.19-.05-.6-.08-1.22-.11-.61-.02-1.23-.03-1.84-.03-1.11 0-2.15.13-3.11.39s-1.79.64-2.49 1.15a5.48 5.48 0 0 0-2.26 4.51c0 .99.19 1.82.56 2.49.38.66.85 1.19 1.42 1.58a5.8 5.8 0 0 0 1.86.84 7.82 7.82 0 0 0 4.88-.29 5.52 5.52 0 0 0 2.2-1.53zm-.15-6.02c0 .48-.09.89-.29 1.25a2.8 2.8 0 0 1-.74.89 3.95 3.95 0 0 1-2.28.75c-1.7 0-2.55-.69-2.55-2.07 0-.73.3-1.3.91-1.7.61-.41 1.64-.61 3.1-.61a13.24 13.24 0 0 1 1.85.14zm10.13-.35c0 1.04.11 1.99.33 2.85a5.5 5.5 0 0 0 1.09 2.19 5.3 5.3 0 0 0 2 1.42 8.1 8.1 0 0 0 3.06.51c1.95 0 3.74-.64 5.4-1.92l-2.12-3.13c-.34.24-.7.45-1.09.62-.39.18-.85.27-1.38.27-.71 0-1.22-.22-1.55-.66a3.06 3.06 0 0 1-.49-1.87v-6.58h4.4v-4.02h-4.4v-5.06h-5.25v5.06h-2.69v4.02h2.69zm13.91-12.78h5.61V60h-5.61zm.19 19.15h5.24V67.05h-5.24zm14.71 0h4.96l7.32-16.69h-5.72l-3.9 10.96-4.04-10.96h-5.83zm27.47-5.05c-.39.28-1.01.62-1.86 1.01-.85.39-1.96.59-3.32.59a4.84 4.84 0 0 1-3.26-1.02 3.19 3.19 0 0 1-1.22-2.36H152v-.86c0-1.4-.18-2.69-.55-3.86a8.48 8.48 0 0 0-1.62-3.03 7.33 7.33 0 0 0-2.64-1.97 8.79 8.79 0 0 0-3.64-.71c-1.38 0-2.62.24-3.72.73a8.23 8.23 0 0 0-4.49 4.77 10.21 10.21 0 0 0 .03 7.01 7.93 7.93 0 0 0 4.83 4.66c1.16.44 2.48.66 3.93.66a12.8 12.8 0 0 0 5.12-1 8.31 8.31 0 0 0 1.51-.8c.39-.27.68-.47.88-.59zm-9.66-5.06c0-.35.08-.72.24-1.08a3.4 3.4 0 0 1 1.84-1.78c.46-.21 1-.31 1.6-.31a3.6 3.6 0 0 1 2.66 1.07c.29.31.51.65.66 1.02.14.36.22.73.22 1.08z"/></svg>